#!OML:ASF F:\VICON\USERDATA\INSTALL\rory3\rory3.ASF
:FULLY-SPECIFIED
:DEGREES
959
root 5.52061 17.4374 1.49934 20.0576 2.80434 0.76915
lowerback -10.5654 -1.05777 10.4364
upperback -14.6385 -1.78865 0.764155
thorax -10.4127 -1.95426 -4.98193
lowerneck -3.3121 19.9753 10.6115
upperneck 8.53412 26.1657 0.0162605
head 4.40144 13.2443 0.0493343
rclavicle -1.92821e-014 1.11319e-014
rhumerus -8.03743 -30.0399 31.3786
rradius 112.067
rwrist -63.7197
rhand -5.0658 -43.556
rfingers 7.12502
rthumb 20.7302 -72.4688
lclavicle -1.92821e-014 1.11319e-014
lhumerus 22.7425 24.6391 -13.9778
lradius 32.7601
lwrist 56.3032
lhand -20.0752 -13.9138
lfingers 7.12502
lthumb 6.26717 15.9735
rfemur -10.3876 10.5023 -8.49393
rtibia 9.02304
rfoot -15.4112 -21.8736
rtoes 41.4155
lfemur -19.1858 2.57664 -30.2832
ltibia 17.0731
lfoot -16.6255 2.00975
ltoes 8.5332
960
root 5.51334 17.4387 1.483 20.0064 2.68402 0.881874
lowerback -10.3421 -1.0847 10.1838
upperback -14.6268 -1.78923 0.769578
thorax -10.5029 -1.93097 -4.82991
lowerneck -3.33485 19.977 10.6153
upperneck 8.52553 26.1692 -0.0278768
head 4.40877 13.2435 0.0401893
rclavicle -3.73715e-014 6.36111e-015
rhumerus -8.0563 -30.1209 31.4074
rradius 112.062
rwrist -63.7841
rhand -5.24603 -43.7186
rfingers 7.12502
rthumb 20.557 -72.6502
lclavicle -3.73715e-014 6.36111e-015
lhumerus 22.7704 24.8485 -13.9187
lradius 32.7296
lwrist 56.2936
lhand -19.5802 -13.8028
lfingers 7.12502
lthumb 6.7451 16.0698
rfemur -10.4774 10.5937 -8.64779
rtibia 9.04363
rfoot -15.53 -21.8766
rtoes 41.5699
lfemur -19.2314 2.64186 -30.4018
ltibia 17.0668
lfoot -16.5421 1.94775
ltoes 8.68801
961
root 5.51371 17.4373 1.48333 19.9817 2.6581 0.957587
lowerback -10.3447 -1.08345 10.1066
upperback -14.59 -1.78887 0.744955
thorax -10.4508 -1.92082 -4.81579
lowerneck -3.53353 19.9886 10.5914
upperneck 8.68084 26.1601 0.0260505
head 4.47743 13.2402 0.0866398
rclavicle 1.70955e-014 -1.19271e-014
rhumerus -8.10855 -30.236 31.4498
rradius 112.007
rwrist -63.7033
rhand -4.89216 -43.6785
rfingers 7.12502
rthumb 20.897 -72.5729
lclavicle 1.70955e-014 -1.19271e-014
lhumerus 22.7428 24.8964 -13.971
lradius 32.7439
lwrist 56.3473
lhand -19.441 -13.8614
lfingers 7.12502
lthumb 6.87946 16.0068
rfemur -10.4963 10.6029 -8.74212
rtibia 9.11807
rfoot -15.5778 -21.8116
rtoes 41.5875
lfemur -19.1875 2.72413 -30.4992
ltibia 17.0637
lfoot -16.6101 1.82494
ltoes 8.96923
962
root 5.51161 17.4364 1.47611 20.006 2.59562 1.07188
lowerback -10.2401 -1.09318 9.96601
upperback -14.6184 -1.78529 0.715584
thorax -10.5333 -1.91105 -4.76614
lowerneck -3.58022 19.9937 10.603
upperneck 8.70534 26.1618 0.0187829
head 4.49476 13.2406 0.090724
rclavicle -6.16232e-015 -2.22639e-014
rhumerus -8.15064 -30.2573 31.4405
rradius 111.987
rwrist -63.5679
rhand -4.52217 -43.4993
rfingers 7.12502
rthumb 21.2525 -72.3542
lclavicle -6.16232e-015 -2.22639e-014
lhumerus 22.6773 24.7868 -14.1043
lradius 32.7678
lwrist 56.3617
lhand -19.4995 -13.8987
lfingers 7.12502
lthumb 6.82301 15.9714
rfemur -10.7332 10.6071 -8.899
rtibia 9.40074
rfoot -15.456 -21.8045
rtoes 41.4935
lfemur -19.2117 2.73954 -30.6363
ltibia 17.0287
lfoot -16.542 1.88031
ltoes 8.85087
963
root 5.5093 17.4378 1.46709 20.064 2.53979 1.06135
lowerback -10.1783 -1.08594 9.92502
upperback -14.639 -1.76539 0.727841
thorax -10.586 -1.89897 -4.72742
lowerneck -3.64807 20.0112 10.5802
upperneck 8.71901 26.1772 0.0347124
head 4.50506 13.2474 0.106175
rclavicle 1.98785e-015 4.77083e-015
rhumerus -8.23627 -30.2553 31.4899
rradius 112.045
rwrist -63.5865
rhand -4.38771 -43.3339
rfingers 7.12502
rthumb 21.3816 -72.1742
lclavicle 1.98785e-015 4.77083e-015
lhumerus 22.7171 24.8695 -14.0879
lradius 32.6955
lwrist 56.1239
lhand -19.3911 -13.7978
lfingers 7.12502
lthumb 6.9276 16.0688
rfemur -10.9589 10.6284 -8.92367
rtibia 9.55687
rfoot -16.1163 -21.3912
rtoes 42.6566
lfemur -19.3256 2.79467 -30.6489
ltibia 17.0111
lfoot -16.416 1.89663
ltoes 8.83969
964
root 5.50943 17.439 1.46635 20.1207 2.55302 0.977671
lowerback -10.2681 -1.07089 9.99876
upperback -14.6282 -1.75733 0.751869
thorax -10.5252 -1.89811 -4.74496
lowerneck -3.86664 20.0487 10.495
upperneck 8.91811 26.1946 0.194816
head 4.56982 13.261 0.191808
rclavicle 2.70347e-014 -2.70347e-014
rhumerus -8.29061 -30.2899 31.5116
rradius 112.079
rwrist -63.616
rhand -4.46362 -43.2527
rfingers 7.12502
rthumb 21.3087 -72.1012
lclavicle 2.70347e-014 -2.70347e-014
lhumerus 22.8127 25.1639 -13.9585
lradius 32.5897
lwrist 55.7649
lhand -18.9318 -13.5993
lfingers 7.12502
lthumb 7.37099 16.2523
rfemur -11.0251 10.6177 -8.83372
rtibia 9.55654
rfoot -17.012 -20.7543
rtoes 43.9393
lfemur -19.4027 2.7656 -30.5586
ltibia 17.0164
lfoot -16.4368 1.90124
ltoes 9.01804
965
root 5.51024 17.4379 1.47092 20.1374 2.58076 0.982995
lowerback -10.3796 -1.08058 10.0081
upperback -14.6363 -1.78275 0.759285
thorax -10.4758 -1.9096 -4.74519
lowerneck -3.61397 20.0389 10.555
upperneck 8.73393 26.2184 0.0604645
head 4.49972 13.269 0.115894
rclavicle 1.19271e-015 -4.05521e-014
rhumerus -8.22527 -30.2924 31.4571
rradius 112.059
rwrist -63.5815
rhand -4.51964 -43.3055
rfingers 7.12502
rthumb 21.2549 -72.1601
lclavicle 1.19271e-015 -4.05521e-014
lhumerus 22.7489 25.1514 -14.0526
lradius 32.5866
lwrist 55.792
lhand -18.503 -13.3256
lfingers 7.12502
lthumb 7.78491 16.5111
rfemur -10.8641 10.5873 -8.82286
rtibia 9.28753
rfoot -16.5532 -21.143
rtoes 43.0923
lfemur -19.4327 2.73101 -30.5553
ltibia 17.0846
lfoot -16.5565 1.89249
ltoes 9.15504
